<svg xmlns="http://www.w3.org/2000/svg" viewBox="0 0 96 68">
  <defs>
    <style>
      .cls-1 {
        fill: #2072b2;
      }
    </style>
  </defs>
  <g id="delivery-truck" transform="translate(0 -90.939)">
    <path id="Path_43" data-name="Path 43" class="cls-1" d="M3.368,136.246V95.081a4.126,4.126,0,0,1,4.11-4.142H48.3a4.126,4.126,0,0,1,4.109,4.142v41.165a1.375,1.375,0,0,1-1.37,1.381H4.738A1.375,1.375,0,0,1,3.368,136.246Zm32.966,14.1a8.524,8.524,0,1,1-8.524-8.591A8.557,8.557,0,0,1,36.335,150.348Zm-4.262,0a4.262,4.262,0,1,0-4.262,4.3A4.279,4.279,0,0,0,32.073,150.348Zm-11.6-8.591H1.37A1.375,1.375,0,0,0,0,143.138v4.189a1.375,1.375,0,0,0,1.37,1.381H16.679A11.356,11.356,0,0,1,20.47,141.758Zm60.462,8.591a8.524,8.524,0,1,1-8.524-8.591A8.557,8.557,0,0,1,80.931,150.348Zm-4.262,0a4.262,4.262,0,1,0-4.262,4.3A4.279,4.279,0,0,0,76.67,150.348ZM96,143.138v4.189a1.375,1.375,0,0,1-1.37,1.381H83.539a11.236,11.236,0,0,0-22.264,0H38.943a11.357,11.357,0,0,0-3.79-6.95H56.328V102.267a2.751,2.751,0,0,1,2.74-2.761H72a10.935,10.935,0,0,1,9.082,4.865l8.337,12.445A11.107,11.107,0,0,1,91.3,123v18.761H94.63A1.375,1.375,0,0,1,96,143.138Zm-13.9-26-6.667-9.548a1.367,1.367,0,0,0-1.12-.586h-10.4a1.375,1.375,0,0,0-1.37,1.381v9.548a1.375,1.375,0,0,0,1.37,1.381H80.983A1.381,1.381,0,0,0,82.1,117.135Z"/>
  </g>
</svg>
