<svg xmlns="http://www.w3.org/2000/svg" viewBox="0 0 11.408 21.101">
  <defs>
    <style>
      .cls-1 {
        fill: #2072b2;
      }
    </style>
  </defs>
  <g id="facebook-logo" transform="translate(0)">
    <path id="Path_44" data-name="Path 44" class="cls-1" d="M33.056,0,30.319,0a4.806,4.806,0,0,0-5.061,5.193V7.587H22.507a.43.43,0,0,0-.43.43v3.469a.43.43,0,0,0,.43.43h2.751v8.754a.43.43,0,0,0,.43.43h3.59a.43.43,0,0,0,.43-.43V11.917h3.217a.43.43,0,0,0,.43-.43V8.018a.431.431,0,0,0-.43-.43H29.709V5.558c0-.976.232-1.471,1.5-1.471h1.843a.43.43,0,0,0,.43-.43V.435A.43.43,0,0,0,33.056,0Z" transform="translate(-22.077)"/>
  </g>
</svg>
