<svg xmlns="http://www.w3.org/2000/svg" xmlns:xlink="http://www.w3.org/1999/xlink" viewBox="0 0 218 219">
  <defs>
    <style>
      .cls-1 {
        fill: #fff;
      }

      .cls-2 {
        fill: #2072b2;
      }

      .cls-3 {
        filter: url(#Ellipse_7);
      }
    </style>
    <filter id="Ellipse_7" x="0" y="0" width="218" height="219" filterUnits="userSpaceOnUse">
      <feOffset dy="10" input="SourceAlpha"/>
      <feGaussianBlur stdDeviation="3" result="blur"/>
      <feFlood flood-opacity="0.161"/>
      <feComposite operator="in" in2="blur"/>
      <feComposite in="SourceGraphic"/>
    </filter>
  </defs>
  <g id="Group_77" data-name="Group 77" transform="translate(-1403 -2211)">
    <g class="cls-3" transform="matrix(1, 0, 0, 1, 1403, 2211)">
      <circle id="Ellipse_7-2" data-name="Ellipse 7" class="cls-1" cx="100" cy="100" r="100" transform="translate(9)"/>
    </g>
    <g id="gear" transform="translate(1437 2236)">
      <g id="Group_76" data-name="Group 76">
        <g id="Group_75" data-name="Group 75">
          <path id="Path_31" data-name="Path 31" class="cls-2" d="M196.943,52.327l-12.559-2.511a46.943,46.943,0,0,0-3.184-7.684l7.105-10.658a7.988,7.988,0,0,0-1-10.052l-5.385-5.385a7.987,7.987,0,0,0-10.052-1l-10.658,7.105a46.974,46.974,0,0,0-7.684-3.184L151.019,6.4A7.987,7.987,0,0,0,143.208,0h-7.616a7.988,7.988,0,0,0-7.812,6.4l-2.512,12.559a46.953,46.953,0,0,0-7.684,3.184l-10.658-7.105a7.988,7.988,0,0,0-10.052.995L91.49,21.422a7.988,7.988,0,0,0-.995,10.052L97.6,42.132a46.965,46.965,0,0,0-3.184,7.684L81.857,52.327a7.988,7.988,0,0,0-6.4,7.812v7.615a7.988,7.988,0,0,0,6.4,7.812l8.131,1.626a2.368,2.368,0,0,0,.929-4.645l-8.131-1.626a3.238,3.238,0,0,1-2.6-3.167V60.14a3.238,3.238,0,0,1,2.6-3.167l13.958-2.792A2.369,2.369,0,0,0,98.561,52.5a42.186,42.186,0,0,1,3.865-9.328,2.369,2.369,0,0,0-.093-2.476l-7.9-11.846a3.238,3.238,0,0,1,.4-4.075l5.385-5.385a3.238,3.238,0,0,1,4.075-.4l11.846,7.9a2.369,2.369,0,0,0,2.476.093,42.182,42.182,0,0,1,9.328-3.865,2.369,2.369,0,0,0,1.685-1.816l2.792-13.958a3.238,3.238,0,0,1,3.167-2.6h7.616a3.238,3.238,0,0,1,3.167,2.6l2.792,13.958a2.368,2.368,0,0,0,1.685,1.816,42.188,42.188,0,0,1,9.328,3.865,2.369,2.369,0,0,0,2.476-.093l11.846-7.9a3.237,3.237,0,0,1,4.075.4l5.385,5.385a3.238,3.238,0,0,1,.4,4.075l-7.9,11.846a2.368,2.368,0,0,0-.093,2.476A42.2,42.2,0,0,1,180.24,52.5a2.369,2.369,0,0,0,1.816,1.685l13.958,2.792a3.238,3.238,0,0,1,2.6,3.167v7.615a3.238,3.238,0,0,1-2.6,3.167l-13.958,2.792A2.369,2.369,0,0,0,180.24,75.4a42.2,42.2,0,0,1-3.865,9.328,2.369,2.369,0,0,0,.093,2.476l7.9,11.846a3.238,3.238,0,0,1-.4,4.075l-5.385,5.385a3.238,3.238,0,0,1-4.075.4l-11.846-7.9a2.368,2.368,0,0,0-2.627,3.941l11.846,7.9a7.986,7.986,0,0,0,10.052-.995l5.385-5.385a7.988,7.988,0,0,0,.995-10.052L181.2,85.763a46.985,46.985,0,0,0,3.184-7.684l12.559-2.511a7.989,7.989,0,0,0,6.4-7.812V60.14A7.989,7.989,0,0,0,196.943,52.327Z" transform="translate(-53.348)"/>
          <path id="Path_32" data-name="Path 32" class="cls-2" d="M93.947,211.662H71.842a2.368,2.368,0,0,0,0,4.737H93.947a3.952,3.952,0,0,1,3.947,3.947V223.5a3.952,3.952,0,0,1-3.947,3.947H71.842a2.368,2.368,0,1,0,0,4.737H93.947a3.952,3.952,0,0,1,3.947,3.947v3.158a3.952,3.952,0,0,1-3.947,3.947H71.842a2.368,2.368,0,1,0,0,4.737H93.947a3.952,3.952,0,0,1,3.947,3.947v3.158a3.952,3.952,0,0,1-3.947,3.947H71.842a2.368,2.368,0,1,0,0,4.737H93.947a3.952,3.952,0,0,1,3.947,3.947v3.158a3.952,3.952,0,0,1-3.947,3.947h-42.9a8.362,8.362,0,0,1-5.934-2.449A13.133,13.133,0,0,0,35.8,268.5H30V242.452a2.368,2.368,0,0,0-4.737,0V274.03a.79.79,0,0,1-.79.79H17.368V242.451a2.368,2.368,0,1,0-4.737,0v32.368H5.526a.79.79,0,0,1-.79-.79V220.346a.79.79,0,0,1,.79-.79H24.474a.79.79,0,0,1,.79.79v12.632a2.368,2.368,0,0,0,4.737,0v-7.105H35.71a8.674,8.674,0,0,0,8.239-5.938l.882-2.646a80.043,80.043,0,0,0,4.116-25.363,3.952,3.952,0,0,1,3.947-3.947A7.105,7.105,0,0,1,60,195.083v25.262a2.368,2.368,0,1,0,4.737,0V195.083A11.843,11.843,0,0,0,52.894,183.24a8.694,8.694,0,0,0-8.684,8.684,75.319,75.319,0,0,1-3.873,23.866l-.882,2.646a3.942,3.942,0,0,1-3.745,2.7H30v-.79a5.533,5.533,0,0,0-5.526-5.526H5.526A5.534,5.534,0,0,0,0,220.346V274.03a5.533,5.533,0,0,0,5.526,5.526H24.474A5.533,5.533,0,0,0,30,274.03v-.79h5.8a8.425,8.425,0,0,1,5.972,2.488,13.068,13.068,0,0,0,9.275,3.828h42.9a8.694,8.694,0,0,0,8.684-8.684v-3.158A8.662,8.662,0,0,0,99.9,261.4a8.662,8.662,0,0,0,2.73-6.316v-3.158a8.662,8.662,0,0,0-2.73-6.316,8.662,8.662,0,0,0,2.73-6.316v-3.158a8.662,8.662,0,0,0-2.73-6.316,8.662,8.662,0,0,0,2.73-6.316v-3.158A8.694,8.694,0,0,0,93.947,211.662Z" transform="translate(0 -129.556)"/>
          <path id="Path_33" data-name="Path 33" class="cls-2" d="M264.377,201.09a12.158,12.158,0,1,0-12-10.284A12.19,12.19,0,0,0,264.377,201.09ZM263.24,181.6a7.42,7.42,0,1,1-6.187,8.476A7.431,7.431,0,0,1,263.24,181.6Z" transform="translate(-178.332 -124.984)"/>
          <path id="Path_34" data-name="Path 34" class="cls-2" d="M361.113,193.535a2.361,2.361,0,0,0,1.711-.731,32.054,32.054,0,0,0,2.846-40.921,2.369,2.369,0,1,0-3.838,2.776,27.317,27.317,0,0,1-2.43,34.87,2.368,2.368,0,0,0,1.711,4.005Z" transform="translate(-253.644 -106.693)"/>
          <path id="Path_35" data-name="Path 35" class="cls-2" d="M244.917,118.689a2.368,2.368,0,0,0-.466-3.317,32.034,32.034,0,0,0-47.4,10.229,2.368,2.368,0,1,0,4.156,2.273,27.3,27.3,0,0,1,40.4-8.718A2.369,2.369,0,0,0,244.917,118.689Z" transform="translate(-139.113 -77)"/>
        </g>
      </g>
    </g>
  </g>
</svg>
