<svg xmlns="http://www.w3.org/2000/svg" xmlns:xlink="http://www.w3.org/1999/xlink" viewBox="0 0 218 219">
  <defs>
    <style>
      .cls-1 {
        fill: #fff;
      }

      .cls-2 {
        fill: #2072b2;
      }

      .cls-3 {
        filter: url(#Ellipse_5);
      }
    </style>
    <filter id="Ellipse_5" x="0" y="0" width="218" height="219" filterUnits="userSpaceOnUse">
      <feOffset dy="10" input="SourceAlpha"/>
      <feGaussianBlur stdDeviation="3" result="blur"/>
      <feFlood flood-opacity="0.161"/>
      <feComposite operator="in" in2="blur"/>
      <feComposite in="SourceGraphic"/>
    </filter>
  </defs>
  <g id="Group_72" data-name="Group 72" transform="translate(-305 -2130)">
    <g class="cls-3" transform="matrix(1, 0, 0, 1, 305, 2130)">
      <circle id="Ellipse_5-2" data-name="Ellipse 5" class="cls-1" cx="100" cy="100" r="100" transform="translate(9)"/>
    </g>
    <g id="construction" transform="translate(337.458 2155)">
      <g id="Group_53" data-name="Group 53" transform="translate(106.663 40.684)">
        <g id="Group_52" data-name="Group 52">
          <ellipse id="Ellipse_4" data-name="Ellipse 4" class="cls-2" cx="2.43" cy="2.416" rx="2.43" ry="2.416"/>
        </g>
      </g>
      <g id="Group_56" data-name="Group 56" transform="translate(1.542)">
        <g id="Group_55" data-name="Group 55">
          <g id="Group_54" data-name="Group 54">
            <path id="Path_14" data-name="Path 14" class="cls-2" d="M319.083,217.393c.021-.022-.022.021,0,0Z" transform="translate(-225.484 -153.699)"/>
            <path id="Path_15" data-name="Path 15" class="cls-2" d="M296.117,194.436Z" transform="translate(-209.288 -137.469)"/>
            <path id="Path_16" data-name="Path 16" class="cls-2" d="M145.464,37.741h-2.97a38.825,38.825,0,0,0-4.542-10.893l2.1-2.089a6.021,6.021,0,0,0,0-8.542l-4.828-4.8a6.109,6.109,0,0,0-8.593,0l-2.1,2.089a39.327,39.327,0,0,0-10.96-4.515V6.04A6.065,6.065,0,0,0,107.495,0h-6.828a6.065,6.065,0,0,0-6.076,6.04V8.991a39.324,39.324,0,0,0-10.96,4.515l-2.1-2.089a6.11,6.11,0,0,0-8.593,0l-4.828,4.8a6.021,6.021,0,0,0,0,8.542l2.1,2.089A38.835,38.835,0,0,0,65.667,37.74H62.7a6.065,6.065,0,0,0-6.076,6.04v6.787a6.065,6.065,0,0,0,6.076,6.04h2.97a38.9,38.9,0,0,0,4.511,10.843l.523.894L30.536,108.268a21.887,21.887,0,0,0-22.66,5.017,21.445,21.445,0,0,0-4.9,22.927,2.206,2.206,0,0,0,3.61.763l11.28-11.212,5.573,2.278,2.469,5.745-11.264,11.2a2.181,2.181,0,0,0,.767,3.588,21.576,21.576,0,0,0,28.114-27.391l7.451-7.406a2.178,2.178,0,0,0,0-3.093,2.21,2.21,0,0,0-3.111,0l-8.477,8.426a2.177,2.177,0,0,0-.455,2.433,17.167,17.167,0,0,1-18.5,23.87l9.635-9.577a2.177,2.177,0,0,0,.467-2.406L27.134,125.5a2.193,2.193,0,0,0-1.186-1.163l-7.762-3.173a2.21,2.21,0,0,0-2.392.476l-9.635,9.577a17.1,17.1,0,0,1,4.828-14.839,17.425,17.425,0,0,1,19.187-3.545,2.211,2.211,0,0,0,2.448-.453L88.37,56.968a2.177,2.177,0,0,0,.455-2.433,17.166,17.166,0,0,1,18.5-23.87l-.007.007-9.656,9.6-.051.052-.007.008-.009.01-.047.052-.01.012-.016.019-.016.02-.01.012-.015.019-.011.014-.015.02-.009.012-.014.019-.011.015-.013.018-.01.015-.012.018-.011.016-.012.019-.009.014-.014.022-.008.013-.012.021-.008.014-.011.019-.009.016-.011.019-.009.016-.012.023-.006.013-.011.022-.007.015-.01.02-.008.016-.01.022-.006.014-.009.02-.008.019L97.173,41l-.007.018-.009.023-.006.015-.008.023-.005.015-.008.024,0,.013-.007.023-.005.017-.006.02-.006.019-.006.019-.005.019-.006.021,0,.017-.006.023,0,.015-.006.025,0,.015,0,.023c0,.006,0,.011,0,.017l0,.023,0,.016c0,.008,0,.015,0,.023l0,.017c0,.007,0,.015,0,.022l0,.018c0,.008,0,.017,0,.025l0,.013c0,.009,0,.018,0,.027s0,.009,0,.013,0,.017,0,.026v.015l0,.024c0,.006,0,.011,0,.016s0,.016,0,.025v.041s0,.009,0,.014,0,.018,0,.028,0,.008,0,.012v.04c0,.01,0,.019,0,.029s0,.007,0,.011v.029s0,.008,0,.012,0,.018,0,.028,0,.008,0,.012,0,.02,0,.029V42l0,.029s0,.008,0,.012,0,.019,0,.029v.011l0,.029s0,.008,0,.012l0,.029s0,.007,0,.011l0,.03s0,.008,0,.011l.005.028,0,.011.006.03,0,.011.007.03,0,.009.007.028,0,.013.007.026,0,.012.008.028,0,.011.008.027,0,.013.008.025.005.015.008.024.005.015.008.023.007.018.008.021.007.018.009.021,0,.008,3.222,7.685a2.192,2.192,0,0,0,1.157,1.166l7.947,3.416a2.21,2.21,0,0,0,2.429-.461l9.664-9.606a17.1,17.1,0,0,1-4.828,14.839,17.427,17.427,0,0,1-19.187,3.545,2.21,2.21,0,0,0-2.448.453L54.092,104.5a2.178,2.178,0,0,0,0,3.093,2.21,2.21,0,0,0,3.111,0l26.731-26.57a39.406,39.406,0,0,0,10.658,4.336v2.952a6.065,6.065,0,0,0,6.076,6.04H107.5a6.065,6.065,0,0,0,6.076-6.04V85.354a39.316,39.316,0,0,0,10.96-4.515l2.1,2.089a6.1,6.1,0,0,0,8.593,0l4.828-4.8a6.014,6.014,0,0,0,0-8.542l-2.1-2.089A38.833,38.833,0,0,0,142.5,56.606h2.97a6.065,6.065,0,0,0,6.076-6.04V43.779A6.066,6.066,0,0,0,145.464,37.741Zm-31.1,8.127L109.909,50.3l-5.786-2.642-2.3-5.337,5.535-5.5,6.2,1.849,1.86,6.161Zm32.777,4.7a1.673,1.673,0,0,1-1.676,1.666h-4.086a3.012,3.012,0,0,0-2.93,2.357,34.526,34.526,0,0,1-4.793,11.494,2.986,2.986,0,0,0,.4,3.725l2.891,2.873a1.659,1.659,0,0,1,0,2.356l-4.828,4.8a1.685,1.685,0,0,1-2.37,0l-2.891-2.873a3.032,3.032,0,0,0-3.749-.394,34.965,34.965,0,0,1-11.563,4.764,3,3,0,0,0-2.371,2.912v4.062a1.673,1.673,0,0,1-1.676,1.666h-6.827a1.673,1.673,0,0,1-1.676-1.666V84.246a3,3,0,0,0-2.371-2.913,34.974,34.974,0,0,1-9.463-3.519l4.177-4.151a29.613,29.613,0,0,0,41.737-20.84,2.2,2.2,0,0,0-4.319-.837,25.2,25.2,0,0,1-34.081,18.36l2.554-2.539a21.885,21.885,0,0,0,22.66-5.017,21.446,21.446,0,0,0,4.9-22.928,2.206,2.206,0,0,0-3.61-.763l-2.224,2.21-1.519-5.033a2.193,2.193,0,0,0-1.475-1.466l-5.063-1.51,2.223-2.21a2.181,2.181,0,0,0-.768-3.588A21.576,21.576,0,0,0,84.234,54.9L81.322,57.79a24.836,24.836,0,0,1-2.377-10.616,25.149,25.149,0,0,1,50.067-3.236,2.2,2.2,0,0,0,4.364-.56,29.551,29.551,0,0,0-58.831,3.8,29.177,29.177,0,0,0,3.5,13.872l-4.125,4.1A34.539,34.539,0,0,1,69.716,54.59a3.013,3.013,0,0,0-2.931-2.357H62.7a1.673,1.673,0,0,1-1.676-1.666V43.781A1.673,1.673,0,0,1,62.7,42.115h4.086a3.012,3.012,0,0,0,2.93-2.356,34.527,34.527,0,0,1,4.793-11.494,2.985,2.985,0,0,0-.4-3.725L71.22,21.666a1.661,1.661,0,0,1,0-2.356l4.828-4.8a1.685,1.685,0,0,1,2.37,0l2.891,2.873a3.031,3.031,0,0,0,3.749.394,34.964,34.964,0,0,1,11.565-4.764A3,3,0,0,0,98.992,10.1V6.04a1.673,1.673,0,0,1,1.676-1.666H107.5a1.673,1.673,0,0,1,1.676,1.666V10.1a3,3,0,0,0,2.371,2.912,34.959,34.959,0,0,1,11.563,4.763,3.033,3.033,0,0,0,3.749-.393l2.891-2.873a1.685,1.685,0,0,1,2.37,0l4.828,4.8a1.661,1.661,0,0,1,0,2.356l-2.89,2.873a2.986,2.986,0,0,0-.4,3.727,34.526,34.526,0,0,1,4.792,11.493,3.012,3.012,0,0,0,2.93,2.357h4.086a1.673,1.673,0,0,1,1.676,1.666v6.786Z" transform="translate(-1.542)"/>
          </g>
        </g>
      </g>
      <g id="Group_58" data-name="Group 58" transform="translate(5.891 27.57)">
        <g id="Group_57" data-name="Group 57">
          <path id="Path_17" data-name="Path 17" class="cls-2" d="M56.709,109.851H55.476a17.983,17.983,0,0,0-.82-1.971l.871-.866a3.271,3.271,0,0,0,0-4.639l-3.837-3.814a3.315,3.315,0,0,0-4.667,0l-.871.866a18.251,18.251,0,0,0-1.983-.815V97.386a3.294,3.294,0,0,0-3.3-3.281H35.441a3.294,3.294,0,0,0-3.3,3.281v1.225a18.215,18.215,0,0,0-1.983.815l-.871-.865a3.315,3.315,0,0,0-4.668,0l-3.838,3.814a3.271,3.271,0,0,0,0,4.639l.871.865a18.017,18.017,0,0,0-.82,1.971H19.6a3.294,3.294,0,0,0-3.3,3.281v5.394a3.3,3.3,0,0,0,3.3,3.281h1.233a17.983,17.983,0,0,0,.82,1.971l-.871.866a3.271,3.271,0,0,0,0,4.639l3.837,3.814a3.315,3.315,0,0,0,4.667,0l.871-.866a18.249,18.249,0,0,0,1.983.815v1.225a3.294,3.294,0,0,0,3.3,3.281h5.427a3.294,3.294,0,0,0,3.3-3.281v-1.225a18.213,18.213,0,0,0,1.983-.815l.871.865a3.315,3.315,0,0,0,4.668,0l3.838-3.814a3.271,3.271,0,0,0,0-4.639l-.871-.865a18.018,18.018,0,0,0,.82-1.971h1.233a3.294,3.294,0,0,0,3.3-3.281v-5.394A3.294,3.294,0,0,0,56.709,109.851Zm-1.1,7.581H53.83a2.2,2.2,0,0,0-2.138,1.672,13.69,13.69,0,0,1-1.634,3.925,2.177,2.177,0,0,0,.323,2.685l1.256,1.248-2.282,2.268L48.1,127.981a2.212,2.212,0,0,0-2.7-.321,13.869,13.869,0,0,1-3.949,1.624,2.189,2.189,0,0,0-1.682,2.126v1.767H36.54V131.41a2.19,2.19,0,0,0-1.682-2.126,13.869,13.869,0,0,1-3.949-1.624,2.209,2.209,0,0,0-2.7.321l-1.256,1.248-2.282-2.268,1.256-1.248a2.178,2.178,0,0,0,.323-2.685,13.69,13.69,0,0,1-1.634-3.925,2.2,2.2,0,0,0-2.138-1.672H20.7v-3.207h1.778a2.2,2.2,0,0,0,2.138-1.672,13.69,13.69,0,0,1,1.634-3.925,2.177,2.177,0,0,0-.323-2.685l-1.256-1.248,2.282-2.268,1.256,1.248a2.211,2.211,0,0,0,2.7.321,13.869,13.869,0,0,1,3.949-1.624,2.189,2.189,0,0,0,1.682-2.125V98.479h3.227v1.767a2.19,2.19,0,0,0,1.682,2.125A13.869,13.869,0,0,1,45.4,104a2.21,2.21,0,0,0,2.7-.321l1.256-1.248,2.282,2.268-1.256,1.248a2.178,2.178,0,0,0-.323,2.685,13.69,13.69,0,0,1,1.634,3.925,2.2,2.2,0,0,0,2.138,1.672h1.778v3.207Z" transform="translate(-16.299 -94.105)"/>
        </g>
      </g>
      <g id="Group_60" data-name="Group 60" transform="translate(17.039 38.65)">
        <g id="Group_59" data-name="Group 59">
          <path id="Path_18" data-name="Path 18" class="cls-2" d="M64.827,131.926a10.643,10.643,0,1,0,10.707,10.643A10.687,10.687,0,0,0,64.827,131.926Zm0,16.912a6.269,6.269,0,1,1,6.307-6.269A6.3,6.3,0,0,1,64.827,148.838Z" transform="translate(-54.12 -131.926)"/>
        </g>
      </g>
      <g id="Group_62" data-name="Group 62" transform="translate(82.75 99.883)">
        <g id="Group_61" data-name="Group 61">
          <path id="Path_19" data-name="Path 19" class="cls-2" d="M317.469,356.679h-1.233a17.982,17.982,0,0,0-.82-1.971l.871-.866a3.271,3.271,0,0,0,0-4.639l-3.837-3.814a3.315,3.315,0,0,0-4.667,0l-.871.866a18.245,18.245,0,0,0-1.983-.815v-1.225a3.294,3.294,0,0,0-3.3-3.281H296.2a3.294,3.294,0,0,0-3.3,3.281v1.225a18.21,18.21,0,0,0-1.983.815l-.871-.865a3.315,3.315,0,0,0-4.668,0l-3.838,3.814a3.271,3.271,0,0,0,0,4.639l.871.865a18.013,18.013,0,0,0-.82,1.971h-1.233a3.294,3.294,0,0,0-3.3,3.281v5.394a3.294,3.294,0,0,0,3.3,3.281h1.233a17.988,17.988,0,0,0,.82,1.971l-.871.866a3.271,3.271,0,0,0,0,4.639l3.837,3.814a3.315,3.315,0,0,0,4.667,0l.871-.866a18.24,18.24,0,0,0,1.983.815V381.1a3.294,3.294,0,0,0,3.3,3.281h5.426a3.294,3.294,0,0,0,3.3-3.281v-1.225a18.222,18.222,0,0,0,1.983-.815l.871.865a3.315,3.315,0,0,0,4.668,0l3.838-3.814a3.271,3.271,0,0,0,0-4.639l-.871-.865a18.011,18.011,0,0,0,.82-1.971h1.233a3.294,3.294,0,0,0,3.3-3.281v-5.394A3.294,3.294,0,0,0,317.469,356.679Zm-1.1,7.581h-1.778a2.2,2.2,0,0,0-2.138,1.672,13.69,13.69,0,0,1-1.634,3.925,2.177,2.177,0,0,0,.323,2.685l1.256,1.248-2.282,2.268-1.256-1.248a2.211,2.211,0,0,0-2.7-.321,13.869,13.869,0,0,1-3.949,1.624,2.189,2.189,0,0,0-1.682,2.125V380H297.3v-1.767a2.19,2.19,0,0,0-1.682-2.125,13.87,13.87,0,0,1-3.949-1.624,2.209,2.209,0,0,0-2.7.321l-1.256,1.248-2.282-2.268,1.256-1.248a2.178,2.178,0,0,0,.323-2.685,13.689,13.689,0,0,1-1.634-3.925,2.2,2.2,0,0,0-2.138-1.672h-1.778v-3.207h1.778a2.2,2.2,0,0,0,2.138-1.672,13.689,13.689,0,0,1,1.634-3.925,2.177,2.177,0,0,0-.323-2.685l-1.256-1.248,2.282-2.268,1.256,1.248a2.211,2.211,0,0,0,2.7.321,13.868,13.868,0,0,1,3.949-1.624,2.189,2.189,0,0,0,1.682-2.125v-1.767h3.227v1.767a2.19,2.19,0,0,0,1.682,2.125,13.869,13.869,0,0,1,3.949,1.624,2.21,2.21,0,0,0,2.7-.321l1.256-1.248,2.282,2.268-1.256,1.248a2.178,2.178,0,0,0-.323,2.685,13.689,13.689,0,0,1,1.634,3.925,2.2,2.2,0,0,0,2.138,1.672h1.778Z" transform="translate(-277.06 -340.933)"/>
        </g>
      </g>
      <g id="Group_64" data-name="Group 64" transform="translate(93.897 110.963)">
        <g id="Group_63" data-name="Group 63">
          <path id="Path_20" data-name="Path 20" class="cls-2" d="M325.588,378.753A10.643,10.643,0,1,0,336.3,389.4,10.687,10.687,0,0,0,325.588,378.753Zm0,16.912A6.269,6.269,0,1,1,331.9,389.4,6.3,6.3,0,0,1,325.588,395.665Z" transform="translate(-314.881 -378.753)"/>
        </g>
      </g>
    </g>
  </g>
</svg>
