<svg xmlns="http://www.w3.org/2000/svg" viewBox="0 0 174 53">
  <defs>
    <style>
      .cls-1 {
        fill: #262a39;
        font-size: 40px;
        font-family: SegoeUI, Segoe UI;
      }

      .cls-2 {
        fill: #f6a64c;
      }
    </style>
  </defs>
  <g id="Group_1" data-name="Group 1" transform="translate(-208 -201)">
    <text id="P_ck_n_Fix" data-name="P ck n&apos; Fix" class="cls-1" transform="translate(208 244)"><tspan x="0" y="0">P ck n&apos; Fix</tspan></text>
    <g id="wrench-tool-in-a-hand" transform="translate(233.522 224)">
      <path id="Path_4" data-name="Path 4" class="cls-2" d="M71.7,18.9V12.514a.656.656,0,0,0-.176-.452.58.58,0,0,0-.425-.187h-1.14a.58.58,0,0,0-.425.187.652.652,0,0,0-.166.341V10.745a.619.619,0,0,0,0-.073.661.661,0,0,0-.209-.548l-2.18-1.959a4.742,4.742,0,0,0,2.107-3.977A4.666,4.666,0,0,0,66.677.033a.276.276,0,0,0-.283.013.315.315,0,0,0-.138.263V3.878H63.179V.31A.314.314,0,0,0,63.04.047a.274.274,0,0,0-.283-.013,4.667,4.667,0,0,0-2.408,4.154A4.716,4.716,0,0,0,62.7,8.309v3.565h-1.2a.623.623,0,0,0-.6.64v1.1a.666.666,0,0,0,.089.331.664.664,0,0,0-.089.33v1.1a.661.661,0,0,0,.089.33.663.663,0,0,0-.088.331v1.1a.665.665,0,0,0,.089.331.667.667,0,0,0-.089.331v1.1a.623.623,0,0,0,.6.64h1.2v1.049a2.092,2.092,0,0,0,2.021,2.151h0a2.092,2.092,0,0,0,2.021-2.151v-1.3a.6.6,0,0,0,.051.067.581.581,0,0,0,.425.187H68.77a.617.617,0,0,0,.6-.588.617.617,0,0,0,.6.588H71.1a.579.579,0,0,0,.425-.188A.656.656,0,0,0,71.7,18.9ZM63.11,7.836a4.073,4.073,0,0,1-2.18-3.649A4.083,4.083,0,0,1,62.6.849V4.188a.3.3,0,0,0,.291.31h3.659a.3.3,0,0,0,.291-.31V.849A4.081,4.081,0,0,1,68.5,4.187a4.075,4.075,0,0,1-2.18,3.649.3.3,0,0,0-.131.13l-.013,0A.639.639,0,0,0,66.116,8a.462.462,0,0,0-.06.025.577.577,0,0,0-.112.079l-2.251,2.023a.67.67,0,0,0-.071.9l.668.842,0,.006H63.277V8.117A.311.311,0,0,0,63.11,7.836Zm-1.619,9.327-.018,0,0-.023.02-1.123H63l1.46.021-.019,1.123Zm-.019-1.784.02-1.123h1.495l1.472.021-.02,1.123H61.492l-.018,0Zm.02-2.887h1.495l1.472.021-.02,1.123H62.987l-1.515-.021Zm0,6.743-.02-.33.02-1.123H63l1.461.021-.02,1.123H61.492Zm3.225,2.891a1.49,1.49,0,0,1-1.439-1.532V19.545h1.16a.622.622,0,0,0,.6-.64V17.8a.672.672,0,0,0-.02-.157c0-.014-.008-.028-.012-.043a.667.667,0,0,0-.043-.105c0-.008-.006-.017-.01-.026s.005-.014.009-.021a.644.644,0,0,0,.046-.114c0-.013.008-.026.011-.039a.672.672,0,0,0,.02-.157v-1.1a.677.677,0,0,0-.02-.157c0-.014-.008-.028-.012-.042a.651.651,0,0,0-.044-.107c0-.008-.006-.017-.01-.024s.006-.016.01-.024a.639.639,0,0,0,.045-.111q.007-.02.012-.041a.669.669,0,0,0,.019-.154v-1.1a.674.674,0,0,0-.02-.157c0-.014-.008-.028-.012-.043a.663.663,0,0,0-.044-.107c0-.008-.006-.017-.01-.025s.006-.017.01-.024a.641.641,0,0,0,.043-.107c0-.014.009-.028.012-.043a.675.675,0,0,0,.02-.156v-1.1a.686.686,0,0,0-.012-.125c0-.014-.008-.026-.011-.04a.637.637,0,0,0-.023-.077c-.006-.015-.014-.029-.021-.044s-.02-.043-.032-.063-.02-.028-.03-.041-.02-.03-.031-.044c.016,0,.031-.012.047-.018l.014-.005a.585.585,0,0,0,.091-.039.543.543,0,0,0,.105-.074l1.02-.917v9.567A1.49,1.49,0,0,1,64.717,22.127ZM68.79,18.9a.02.02,0,0,1-.02.021L67.2,18.9V10.811a.318.318,0,0,0-.1-.236l-.457-.41-.023-.021a.288.288,0,0,0-.089-.054.263.263,0,0,0-.044-.008.3.3,0,0,0-.053-.009h0a.274.274,0,0,0-.073.014c-.008,0-.017,0-.025,0a.287.287,0,0,0-.089.055l-1.5,1.324-.666-.871,2.27-2.026a.214.214,0,0,0,.143.008c.007,0,.043,0,.051-.005l2.256,2.043a.325.325,0,0,0,0,.129V18.9Zm2.332,0a.022.022,0,0,1-.019.021l-1.16-.021.019-6.412,1.159.021Z" transform="translate(-60.349 0)"/>
    </g>
  </g>
</svg>
