<svg xmlns="http://www.w3.org/2000/svg" viewBox="0 0 39 68">
  <defs>
    <style>
      .cls-1 {
        fill: #2072b2;
      }
    </style>
  </defs>
  <g id="man-carrying-package" transform="translate(-18.66)">
    <path id="Path_39" data-name="Path 39" class="cls-1" d="M49.49,36.892,43,36.776a1.141,1.141,0,0,1-1.037-.9L40.186,24.54a2.131,2.131,0,0,0-.212-.669,2.273,2.273,0,0,0-2.11-1.461l-10.443.454a2.416,2.416,0,0,0-2.285,2.392l.008,22.935c-.012,1.1-.063,2.7-.121,3.725l-.315,5.59a8.666,8.666,0,0,1-1.055,3.365L19.067,68.33a2.7,2.7,0,0,0,.983,3.781l1.026.573a2.83,2.83,0,0,0,1.383.358,2.905,2.905,0,0,0,2.465-1.363l4.585-7.458A11.9,11.9,0,0,0,30.93,60.2l1.32-10.225,1.429-.14,6.144,9.506a8.851,8.851,0,0,1,1.146,3.346l.695,8A2.23,2.23,0,0,0,43.9,72.84a2.579,2.579,0,0,0,.866-.153l1.106-.393a3.515,3.515,0,0,0,2.234-3.478l-.695-8a14.058,14.058,0,0,0-1.11-4.094L40.4,44.289c-.014-.029-.032-.056-.047-.084l-.025-2.21,9.425-.389a2.254,2.254,0,0,0,2.164-2.435A2.528,2.528,0,0,0,49.49,36.892Z" transform="translate(0 -5.041)"/>
    <path id="Path_40" data-name="Path 40" class="cls-1" d="M32.129,15a7.5,7.5,0,0,0,0-15,7.5,7.5,0,0,0,0,15Z" transform="translate(-1.355 0)"/>
    <path id="Path_41" data-name="Path 41" class="cls-1" d="M64.026,22.3a2.341,2.341,0,0,0-2.474-2.163l-9.871.66a2.322,2.322,0,0,0-2.157,2.477l.616,8.865a2.335,2.335,0,0,0,2.319,2.169c.051,0,.1,0,.155-.005l9.871-.66a2.322,2.322,0,0,0,2.157-2.477Z" transform="translate(-6.987 -4.529)"/>
  </g>
</svg>
