<svg xmlns="http://www.w3.org/2000/svg" viewBox="0 0 48 40">
  <defs>
    <style>
      .cls-1 {
        fill: #2072b2;
      }
    </style>
  </defs>
  <g id="men-carrying-a-box_1_" data-name="men-carrying-a-box (1)" transform="translate(0.002 -40.733)">
    <g id="icons_21_" transform="translate(-0.002 40.733)">
      <g id="Group_86" data-name="Group 86">
        <path id="Path_42" data-name="Path 42" class="cls-1" d="M47.714,153.227c-1.061-1.891-2.63-5.326-2.63-6.694,0-2.557.177-5.737.262-7.571s-1.151-6.341-2.28-11.248c-.811-3.524-5.251-1.933-6.472-1.059a18.856,18.856,0,0,1-5.938,3.561v-2.121a.714.714,0,0,0-.711-.716H18.051a.714.714,0,0,0-.711.716v2.121a18.857,18.857,0,0,1-5.938-3.561c-1.221-.873-5.661-2.465-6.472,1.059-1.129,4.907-2.365,9.414-2.28,11.248s.262,5.014.262,7.571c0,1.368-1.569,4.8-2.63,6.694a2.209,2.209,0,0,0,.826,3,2.177,2.177,0,0,0,2.977-.831c.534-.95,3.2-5.842,3.2-8.861,0-.73.005-1.615.013-2.507,0-.524.321-.466.469-.292,3.073,3.595,3.648,7.513,3.752,10.985a2.192,2.192,0,0,0,2.183,2.134h.067a2.194,2.194,0,0,0,2.118-2.266c-.122-4.058-.9-9.82-5.833-14.832a1.076,1.076,0,0,1-.177-.923c.088-.4,1.514-6.932,1.607-7.3s.4-.176.567-.059a16.366,16.366,0,0,0,5.291,2.307v6.191a.714.714,0,0,0,.711.716H29.945a.714.714,0,0,0,.711-.716v-6.191a16.366,16.366,0,0,0,5.291-2.307c.168-.117.474-.311.567.059s1.519,6.9,1.608,7.3a1.076,1.076,0,0,1-.177.923c-4.937,5.012-5.711,10.774-5.833,14.832a2.194,2.194,0,0,0,2.118,2.266H34.3a2.192,2.192,0,0,0,2.183-2.134c.1-3.472.68-7.39,3.752-10.985.148-.173.47-.232.47.292.008.893.013,1.778.013,2.507,0,3.019,2.663,7.911,3.2,8.861a2.177,2.177,0,0,0,2.977.831A2.209,2.209,0,0,0,47.714,153.227Z" transform="translate(0.002 -116.852)"/>
        <ellipse id="Ellipse_8" data-name="Ellipse 8" class="cls-1" cx="4.195" cy="4.224" rx="4.195" ry="4.224" transform="translate(32.231)"/>
        <ellipse id="Ellipse_9" data-name="Ellipse 9" class="cls-1" cx="4.195" cy="4.224" rx="4.195" ry="4.224" transform="translate(7.38)"/>
      </g>
    </g>
  </g>
</svg>
