<svg xmlns="http://www.w3.org/2000/svg" viewBox="0 0 21.626 40">
  <defs>
    <style>
      .cls-1 {
        fill: #2072b2;
      }
    </style>
  </defs>
  <path id="Path_44" data-name="Path 44" class="cls-1" d="M42.889.008,37.7,0c-5.828,0-9.594,3.864-9.594,9.844v4.539H22.893a.816.816,0,0,0-.816.816v6.576a.816.816,0,0,0,.816.816h5.215V39.184a.815.815,0,0,0,.816.816h6.8a.816.816,0,0,0,.816-.816V22.591h6.1a.815.815,0,0,0,.816-.816l0-6.576a.816.816,0,0,0-.816-.816h-6.1V10.535c0-1.849.441-2.788,2.85-2.788h3.494A.816.816,0,0,0,43.7,6.93V.824A.816.816,0,0,0,42.889.008Z" transform="translate(-22.077)"/>
</svg>
