<svg xmlns="http://www.w3.org/2000/svg" xmlns:xlink="http://www.w3.org/1999/xlink" viewBox="0 0 973.317 931.051">
  <defs>
    <style>
      .cls-1, .cls-3 {
        fill: none;
      }

      .cls-1 {
        stroke: #707070;
      }

      .cls-2 {
        stroke: none;
      }

      .cls-4 {
        filter: url(#Rectangle_14);
      }

      .cls-5 {
        filter: url(#Rectangle_13);
      }

      .cls-6 {
        filter: url(#Rectangle_12);
      }
    </style>
    <filter id="Rectangle_12" x="0" y="9.506" width="921.545" height="921.545" filterUnits="userSpaceOnUse">
      <feOffset dy="3" input="SourceAlpha"/>
      <feGaussianBlur stdDeviation="3" result="blur"/>
      <feFlood flood-opacity="0.161"/>
      <feComposite operator="in" in2="blur"/>
      <feComposite in="SourceGraphic"/>
    </filter>
    <filter id="Rectangle_13" x="5.494" y="0" width="910.557" height="910.557" filterUnits="userSpaceOnUse">
      <feOffset dy="3" input="SourceAlpha"/>
      <feGaussianBlur stdDeviation="3" result="blur-2"/>
      <feFlood flood-opacity="0.161"/>
      <feComposite operator="in" in2="blur-2"/>
      <feComposite in="SourceGraphic"/>
    </filter>
    <filter id="Rectangle_14" x="51.772" y="9.506" width="921.545" height="921.545" filterUnits="userSpaceOnUse">
      <feOffset dy="3" input="SourceAlpha"/>
      <feGaussianBlur stdDeviation="3" result="blur-3"/>
      <feFlood flood-opacity="0.161"/>
      <feComposite operator="in" in2="blur-3"/>
      <feComposite in="SourceGraphic"/>
    </filter>
  </defs>
  <g id="Group_96" data-name="Group 96" transform="translate(490.545 652.989)">
    <g class="cls-6" transform="matrix(1, 0, 0, 1, -490.54, -652.99)">
      <g id="Rectangle_12-2" data-name="Rectangle 12" class="cls-1" transform="matrix(0.69, -0.72, 0.72, 0.69, 9, 475.16)">
        <rect class="cls-2" width="639" height="639" rx="211"/>
        <rect class="cls-3" x="0.5" y="0.5" width="638" height="638" rx="210.5"/>
      </g>
    </g>
    <g class="cls-5" transform="matrix(1, 0, 0, 1, -490.54, -652.99)">
      <g id="Rectangle_13-2" data-name="Rectangle 13" class="cls-1" transform="translate(14.49 381.59) rotate(-36)">
        <rect class="cls-2" width="639" height="639" rx="211"/>
        <rect class="cls-3" x="0.5" y="0.5" width="638" height="638" rx="210.5"/>
      </g>
    </g>
    <g class="cls-4" transform="matrix(1, 0, 0, 1, -490.54, -652.99)">
      <g id="Rectangle_14-2" data-name="Rectangle 14" class="cls-1" transform="matrix(0.69, -0.72, 0.72, 0.69, 60.77, 475.16)">
        <rect class="cls-2" width="639" height="639" rx="211"/>
        <rect class="cls-3" x="0.5" y="0.5" width="638" height="638" rx="210.5"/>
      </g>
    </g>
  </g>
</svg>
